<svg width="512" height="512" viewBox="0 0 512 512" fill="none" xmlns="http://www.w3.org/2000/svg">
<circle cx="256" cy="256" r="256" fill="#0C0A0A"/>
<path d="M234.623 275.014C241.741 280.616 249.981 284.622 258.784 286.76C267.587 288.898 276.746 289.117 285.641 287.404C294.536 285.69 302.959 282.084 310.337 276.829C317.716 271.574 323.878 264.794 328.406 256.948L355.208 210.527C363.239 196.04 365.259 178.978 360.833 163.016C356.407 147.055 345.889 133.47 331.544 125.188C317.199 116.906 300.175 114.589 284.139 118.737C268.103 122.885 254.337 133.165 245.807 147.364L230.408 173.857M276.898 237.526C269.78 231.924 261.54 227.918 252.737 225.78C243.935 223.643 234.775 223.423 225.88 225.137C216.985 226.85 208.563 230.457 201.184 235.711C193.806 240.966 187.643 247.746 183.115 255.592L156.314 302.014C148.282 316.5 146.262 333.562 150.688 349.524C155.114 365.486 165.632 379.071 179.977 387.353C194.322 395.635 211.346 397.951 227.382 393.803C243.419 389.655 257.184 379.375 265.714 365.176L280.991 338.716" stroke="#87F6B7" stroke-width="35" stroke-linecap="round" stroke-linejoin="round"/>
</svg>
